<?xml version="1.0" encoding="utf-8"?>
<!-- Generator: Adobe Illustrator 16.0.0, SVG Export Plug-In . SVG Version: 6.00 Build 0)  -->
<!DOCTYPE svg PUBLIC "-//W3C//DTD SVG 1.1//EN" "http://www.w3.org/Graphics/SVG/1.1/DTD/svg11.dtd">
<svg version="1.1" id="Layer_1" xmlns="http://www.w3.org/2000/svg" xmlns:xlink="http://www.w3.org/1999/xlink" x="0px" y="0px"
	 width="1131px" height="338.04px" viewBox="-646.135 -7.091 1131 338.04" enable-background="new -646.135 -7.091 1131 338.04"
	 xml:space="preserve">
<path fill="#A69B2E" d="M-646.27,65.5c0,0,262.89,79.585,430.882,75.085S-15,57.684,5,47.771c12-7.088,44.212-5.151,62.234-11.787
	S96,24.5,116,20.5s28-29,51-28s53.004,15.001,42,50c-2.71,8.619-11.222,28.051-11.222,28.051S212.5,73.5,241.852,73.5
	c17,0,28.352,17,44.25,36S317,203.5,305,215.5s-91.408,102.076-120,112.576c-30.301,11.128-123.579-12.328-205.338-31.733
	c-29.594-7.024-74.86,0.791-114.053,1.734c-240.017,5.777-511.879,16.271-511.879,16.271V65.5z"/>
<path fill="#73BC71" d="M400.618,24.662c12.632-2.154,48.681-6.16,85.382,0.568c-46.157,5.851-43.26,17.911-82.938,22.542
	L400.618,24.662z"/>
<path fill="#55A3BF" d="M398.374,48.252l-2.445-23.109c0,0-74.811-4.959-108.827,1.843c0.274-0.248,4.643,41.021,4.401,41.595
	C326.285,69.02,398.374,48.252,398.374,48.252z"/>
<path fill="#7C7422" d="M183,83.5l41-10c0,0,9,18,43,35C245.963,108.453,200.361,103.177,183,83.5z"/>
<path fill="#FFF379" d="M154,2.398c0,0,34,27.07,39,33.586s16-23.048,0-29.516S154,2.398,154,2.398z"/>
<path fill="#6CB8D9" d="M282.412,27.469c-15.474,0.738-43.801,3.654-71.135,6.679C208.33,47.771,197.778,73.928,185,82.524
	c30.926-2.724,75.402-9.379,101.812-13.46C287.098,68.486,282.736,27.281,282.412,27.469z"/>
</svg>
