<?xml version="1.0" encoding="utf-8"?>
<!-- Generator: Adobe Illustrator 16.0.0, SVG Export Plug-In . SVG Version: 6.00 Build 0)  -->
<!DOCTYPE svg PUBLIC "-//W3C//DTD SVG 1.1//EN" "http://www.w3.org/Graphics/SVG/1.1/DTD/svg11.dtd">
<svg version="1.1" id="Layer_1" xmlns="http://www.w3.org/2000/svg" xmlns:xlink="http://www.w3.org/1999/xlink" x="0px" y="0px"
	 width="857.5px" height="385px" viewBox="96.5 -35.5 857.5 385" enable-background="new 96.5 -35.5 857.5 385"
	 xml:space="preserve">
<polygon fill="#2F7FD8" stroke="#FFFFFF" stroke-width="10" stroke-miterlimit="10" points="235.99,174.452 966,404.5 966,-100.5 
	236.012,123.086 "/>
<circle fill="#2F7FD8" stroke="#FFFFFF" stroke-width="10" stroke-miterlimit="10" cx="71" cy="158" r="187"/>
<g>
	<g>
		<g>
			<path fill="#FFFFFF" d="M140.421,94.072c-1.259,1.216-1.524,3.082-0.834,4.693c-2.587,7.726-8.757,25.512-14.382,37.499
				c-10.517,22.458-23.447,38.164-23.447,38.164l23.156,23.99c0,0,5.537-4.224,14.656-9.665L161.262,211
				c1.701,1.744,4.535,1.775,6.286,0.07l5.174-5.042c1.745-1.713,1.781-4.527,0.075-6.288l-18.518-18.973
				c3.049-1.504,6.246-2.993,9.614-4.427c12.18-5.19,30.177-10.731,37.99-13.056c1.581,0.749,3.456,0.551,4.712-0.663
				c1.649-1.59,1.613-4.324-0.089-6.091l-59.992-62.152C144.809,92.621,142.067,92.485,140.421,94.072z"/>
			
				<rect x="100.252" y="176.912" transform="matrix(0.7196 -0.6944 0.6944 0.7196 -104.3542 128.01)" fill="#FFFFFF" width="12.131" height="32.596"/>
		</g>
	</g>
</g>
</svg>
