<?xml version="1.0" encoding="utf-8"?>
<!-- Generator: Adobe Illustrator 16.0.0, SVG Export Plug-In . SVG Version: 6.00 Build 0)  -->
<!DOCTYPE svg PUBLIC "-//W3C//DTD SVG 1.1//EN" "http://www.w3.org/Graphics/SVG/1.1/DTD/svg11.dtd">
<svg version="1.1" id="Layer_1" xmlns="http://www.w3.org/2000/svg" xmlns:xlink="http://www.w3.org/1999/xlink" x="0px" y="0px"
	 width="227px" height="107px" viewBox="0 0 227 107" enable-background="new 0 0 227 107" xml:space="preserve">
<g id="_x36_JE9oA.tif">
	<g>
		<path fill="#F2E55B" d="M182.141,78.836c-4.101,0.698-8.2,1.395-12.3,2.093c-3.274,0.144-6.547,0.363-9.822,0.413
			c-12.498,0.188-21.923-5.086-28.272-15.907c-4.256-7.252-6.879-15.18-9.776-22.997c-1.386-3.739-2.915-4.829-7.14-4.833
			c-4.688-0.004-7.456,2.803-7.666,7.487c-0.332,7.439-0.417,14.918-1.297,22.296C104.112,82.1,95.657,91.244,81.425,95.14
			c-2.38,0.651-4.747,1.356-7.119,2.035c-3.963,0.674-7.927,1.348-11.891,2.022c-0.609-0.023-1.222-0.104-1.826-0.06
			c-3.288,0.243-6.571,0.697-9.86,0.745c-6.318,0.089-12.32-1.116-17.269-5.423c-9.195-8-13.929-18.532-16.553-30.107
			c-0.908-4.005-2.711-7.087-5.981-9.475c-1.112-0.811-1.979-1.959-2.958-2.953c-0.163-0.956-0.325-1.913-0.488-2.87
			c0.042-0.543,0.16-1.093,0.114-1.628c-0.25-2.884,0.069-3.462,2.802-4.333c4.047-1.289,8.064-2.713,12.182-3.723
			c7.822-1.918,15.708-3.575,23.562-5.362c1.127-0.256,2.227-0.635,3.338-0.957c5.467-0.93,10.934-1.86,16.401-2.789
			c0.408,0.042,0.824,0.157,1.222,0.115c5.212-0.56,10.417-1.201,15.635-1.695c3.349-0.317,6.716-0.433,10.077-0.625
			c4.116-0.236,8.25-0.292,12.346-0.716c9.579-0.99,18.727-3.926,27.972-6.427c6.644-1.798,13.341-3.395,20.011-5.098
			c0.992-0.253,1.961-0.595,2.94-0.896c5.468-0.93,10.935-1.859,16.401-2.789c0.957-0.034,1.921-0.002,2.868-0.115
			c3.353-0.398,6.69-0.971,10.052-1.25c8.957-0.741,17.922-1.394,26.888-2.016c3.309-0.229,3.715,0.163,4.52,3.333
			c0.114,0.444,0.396,0.845,0.601,1.267c0.162,0.957,0.324,1.913,0.488,2.87c-0.677,1.374-1.218,2.836-2.056,4.103
			c-1.721,2.605-2.727,5.385-2.528,8.516c0.129,2.058,0.461,4.102,0.611,6.159c0.592,8.159-0.475,16.104-3.129,23.845
			c-3.371,9.832-10.622,15.182-20.332,17.736C187.685,77.312,184.915,78.083,182.141,78.836z M174.29,73.959
			c5.96-1.544,10.902-2.581,15.682-4.119c8.194-2.638,13.518-8.203,15.659-16.628c1.853-7.298,1.087-14.532-0.262-21.84
			c-1.299-7.041-5.546-10.474-12.232-11.833c-8.585-1.745-17.152-1.04-25.626,0.311c-6.797,1.083-13.509,2.844-20.159,4.668
			c-4.77,1.308-9.245,3.467-12.973,6.875c-2.694,2.462-4.74,5.361-4.263,9.178c0.769,6.168,2.149,12.225,4.708,17.931
			c4.271,9.522,11.236,15.707,21.989,16.163C162.962,74.926,169.157,74.196,174.29,73.959z M66.117,92.299
			c5.94-1.512,10.899-2.497,15.676-4.046c9.729-3.156,16.015-9.638,17.997-19.895c1.411-7.294,0.639-14.538-0.828-21.703
			c-0.362-1.772-1.394-3.603-2.612-4.963c-2.699-3.012-6.5-4.048-10.336-4.702c-8.409-1.432-16.782-0.259-25.059,0.989
			c-6.25,0.941-12.487,2.438-18.484,4.429c-4.42,1.467-8.589,3.89-12.599,6.332c-3.379,2.057-5.289,5.327-5.233,9.5
			c0.112,8.353,2.114,16.251,6.397,23.389c4.382,7.302,10.818,11.693,19.644,11.523C56.173,93.049,61.659,92.557,66.117,92.299z"/>
		<path fill-rule="evenodd" clip-rule="evenodd" fill="#FFFFFF" d="M156.083,14.923c-0.979,0.301-1.948,0.643-2.94,0.896
			c-6.67,1.703-13.367,3.3-20.011,5.098c-9.245,2.501-18.393,5.438-27.972,6.427c-4.096,0.423-8.23,0.48-12.346,0.716
			c-3.361,0.192-6.728,0.307-10.077,0.625c-5.218,0.494-10.422,1.135-15.635,1.695c-0.398,0.042-0.814-0.073-1.222-0.115
			C95.948,25.15,126.015,20.037,156.083,14.923z"/>
	</g>
</g>
</svg>
