<?xml version="1.0" encoding="utf-8"?>
<!-- Generator: Adobe Illustrator 16.0.0, SVG Export Plug-In . SVG Version: 6.00 Build 0)  -->
<!DOCTYPE svg PUBLIC "-//W3C//DTD SVG 1.1//EN" "http://www.w3.org/Graphics/SVG/1.1/DTD/svg11.dtd">
<svg version="1.1" id="Capa_1" xmlns="http://www.w3.org/2000/svg" xmlns:xlink="http://www.w3.org/1999/xlink" x="0px" y="0px"
	 width="24px" height="24px" viewBox="244 244 24 24" enable-background="new 244 244 24 24" xml:space="preserve">
<g>
	<g>
		<path fill="#FFFFFF" d="M256,244c-6.628,0-12,5.372-12,12s5.372,12,12,12s12-5.372,12-12S262.628,244,256,244z M256,266.557
			c-5.831,0-10.558-4.726-10.558-10.557s4.727-10.558,10.558-10.558s10.557,4.727,10.557,10.558S261.831,266.557,256,266.557z"/>
		<g>
			<g>
				<path fill="#FFFFFF" d="M255.342,252.904c0.23,0.322,0.347,0.71,0.347,1.164c0,0.465-0.118,0.84-0.35,1.124
					c-0.132,0.157-0.322,0.303-0.574,0.433c0.384,0.143,0.674,0.366,0.87,0.673c0.196,0.31,0.293,0.681,0.293,1.119
					c0,0.452-0.111,0.855-0.336,1.215c-0.142,0.238-0.32,0.438-0.533,0.604c-0.24,0.186-0.525,0.312-0.851,0.382
					c-0.328,0.067-0.684,0.102-1.066,0.102h-3.399v-7.628h3.646C254.308,252.103,254.96,252.374,255.342,252.904z M251.248,253.416
					v1.681h1.833c0.327,0,0.592-0.062,0.798-0.188c0.203-0.127,0.306-0.351,0.306-0.671c0-0.356-0.135-0.588-0.404-0.704
					c-0.232-0.08-0.531-0.118-0.892-0.118H251.248z M251.248,256.362v2.033h1.83c0.327,0,0.582-0.047,0.764-0.136
					c0.332-0.166,0.496-0.483,0.496-0.952c0-0.397-0.16-0.67-0.481-0.818c-0.179-0.082-0.429-0.125-0.753-0.126H251.248z"/>
				<path fill="#FFFFFF" d="M260.798,254.19c0.39,0.177,0.712,0.455,0.966,0.835c0.227,0.337,0.375,0.726,0.444,1.168
					c0.038,0.258,0.054,0.63,0.047,1.117h-4.062c0.023,0.568,0.219,0.965,0.586,1.192c0.221,0.142,0.488,0.212,0.801,0.212
					c0.332,0,0.602-0.087,0.81-0.26c0.114-0.093,0.214-0.221,0.302-0.388h1.487c-0.04,0.333-0.22,0.675-0.54,1.021
					c-0.5,0.546-1.2,0.821-2.098,0.821c-0.742,0-1.396-0.232-1.965-0.694c-0.566-0.464-0.848-1.215-0.848-2.259
					c0-0.976,0.254-1.727,0.767-2.249c0.511-0.521,1.175-0.783,1.993-0.783C259.973,253.926,260.41,254.017,260.798,254.19z
					 M258.618,255.465c-0.206,0.216-0.335,0.506-0.388,0.876h2.511c-0.026-0.393-0.156-0.692-0.39-0.894
					c-0.231-0.203-0.52-0.304-0.862-0.304C259.114,255.144,258.822,255.252,258.618,255.465z"/>
			</g>
			<rect x="257.564" y="252.872" fill="#FFFFFF" width="3.91" height="0.782"/>
		</g>
	</g>
</g>
</svg>
