<?xml version="1.0" encoding="utf-8"?>
<!-- Generator: Adobe Illustrator 16.0.0, SVG Export Plug-In . SVG Version: 6.00 Build 0)  -->
<!DOCTYPE svg PUBLIC "-//W3C//DTD SVG 1.1//EN" "http://www.w3.org/Graphics/SVG/1.1/DTD/svg11.dtd">
<svg version="1.1" id="Layer_1" xmlns="http://www.w3.org/2000/svg" xmlns:xlink="http://www.w3.org/1999/xlink" x="0px" y="0px"
	 width="63px" height="34.38px" viewBox="0 0 63 34.38" enable-background="new 0 0 63 34.38" xml:space="preserve">
<g>
	<path fill-rule="evenodd" clip-rule="evenodd" d="M33.29,8.114c1.365,0.321,2.465,0.629,3.583,0.831
		c1.555,0.28,2.474,1.524,3.696,2.306c0.38,0.243,0.094,0.419-0.029,0.617c-1.243,1.999-0.746,3.026,1.76,3.479
		c-0.502-0.355-0.988-0.617-1.369-0.987c-0.619-0.601-0.36-1.244,0.022-1.88c0.392-0.65,0.853-0.387,1.334-0.165
		c0.628,0.289,1.265,0.557,1.89,0.852c0.974,0.46,1.151,1.233,0.375,2.021c-0.966,0.982-2.189,1.37-3.556,1.129
		c-1.56-0.275-2.944-0.98-4.183-1.942c-0.493-0.382-0.869-0.582-1.482-0.205c-0.587,0.36-1.317,0.526-1.995,0.442
		c-1.521-0.189-2.718,0.252-3.828,1.33c-0.942,0.915-2.168,1.409-3.781,1.305c1.131,0.706,2.05,0.449,2.896,0.026
		c0.806-0.403,1.576-0.908,2.283-1.467c0.66-0.52,1.321-0.794,2.17-0.568c0.062,0.477-0.412,0.583-0.642,0.839
		c-1.218,1.357-0.944,2.521,0.813,2.947c0.771,0.187,0.879,0.311,0.513,1.047c-0.639,1.28-0.162,1.957,1.692,2.548
		c-0.554,0.571-1.239,1.016-1.365,1.838c-0.048,0.319-0.325,0.407-0.565,0.453c-2.804,0.534-5.612,1.066-8.471,0.403
		c-0.416-0.097-0.819-0.271-1.209-0.45c-2.016-0.929-2.058-1.018-2.036-3.901c-0.496,0.062-0.41,0.486-0.453,0.779
		c-0.126,0.864-0.15,1.722-1.449,1.563c-0.703-0.085-0.768,0.67-0.849,1.113c-0.299,1.646-1.235,2.039-2.827,1.95
		c-2.545-0.142-5.105-0.053-7.657,0.006c-0.869,0.02-1.195-0.181-1.188-1.128C7.427,19.49,7.42,13.734,7.389,7.978
		C7.385,7.131,7.547,6.74,8.507,6.741c2.942,0.002,5.884-0.083,8.826-0.146c0.596-0.013,1.13-0.014,1.257,0.757
		c0.111,0.676,0.557,0.809,1.211,0.826c1.978,0.052,3.889-0.346,5.739-0.918c3.795-1.175,7.636-1.263,11.542-0.898
		c6.207,0.58,12.307,1.728,18.321,3.344c1.533,0.412,2.068,1.041,1.969,2.281c-0.108,1.364-1.05,1.822-2.217,1.909
		c-3.029,0.226-6.175,0.357-9.022-0.444c-2.219-0.624-4.679-1.497-6.321-3.524C38.656,8.501,35.644,7.654,33.29,8.114z
		 M10.192,16.729c0,2.375,0.051,4.751-0.024,7.123c-0.032,1.005,0.309,1.248,1.25,1.203c1.551-0.074,3.11-0.075,4.661,0
		c0.963,0.047,1.18-0.346,1.119-1.206c-0.351-4.999-0.237-10.007-0.194-15.012c0.006-0.787-0.25-0.965-0.973-0.886
		c-1.543,0.169-3.092,0.375-4.64,0.38c-1.108,0.003-1.236,0.49-1.217,1.403C10.225,12.066,10.192,14.398,10.192,16.729z
		 M51.854,10.043c-0.752,0.926-1.084,1.892-0.357,3.182C51.633,12.011,51.743,11.027,51.854,10.043z M44.423,8.878
		c-0.854,0.855-0.9,1.799-0.205,2.785C44.286,10.734,44.354,9.806,44.423,8.878z"/>
	<path fill-rule="evenodd" clip-rule="evenodd" d="M42.405,18.195c0.076,1.102-0.364,1.566-0.899,1.964
		c-1.644,1.224-3.559,1.72-5.544,1.96c-0.676,0.082-1.32-0.208-1.553-0.916c-0.239-0.728-0.016-1.411,0.658-1.803
		c1.911-1.11,4.017-1.777,6.125-2.36C42.27,16.743,42.346,17.771,42.405,18.195z"/>
	<path fill-rule="evenodd" clip-rule="evenodd" d="M36.565,25.814c-0.709-0.045-1.625,0.101-1.849-0.898
		c-0.232-1.042,0.517-1.587,1.354-1.917c1.396-0.55,2.811-1.063,4.238-1.527c1.194-0.388,1.685,0.04,1.662,1.293
		c-0.024,1.394-0.918,2.088-2.067,2.489C38.852,25.622,37.743,25.812,36.565,25.814z"/>
	<path fill-rule="evenodd" clip-rule="evenodd" d="M40.165,16.63c-2.022,1.085-4.013,1.802-6.194,1.897
		c-0.573,0.024-1.173-0.111-1.398-0.723c-0.253-0.682,0.043-1.246,0.563-1.726c1.432-1.322,2.606-1.45,4.392-0.542
		C38.321,15.941,39.177,16.226,40.165,16.63z"/>
	<path fill-rule="evenodd" clip-rule="evenodd" fill="none" d="M10.192,16.729c0-2.332,0.033-4.664-0.016-6.994
		c-0.019-0.913,0.108-1.4,1.217-1.403c1.547-0.005,3.097-0.211,4.64-0.38c0.723-0.08,0.979,0.099,0.973,0.886
		c-0.043,5.005-0.157,10.013,0.194,15.012c0.061,0.86-0.156,1.253-1.119,1.206c-1.551-0.075-3.11-0.074-4.661,0
		c-0.942,0.045-1.282-0.198-1.25-1.203C10.243,21.48,10.192,19.104,10.192,16.729z M15.399,21.904c-0.085-1-0.554-1.602-1.621-1.567
		c-0.966,0.031-1.5,0.527-1.518,1.517c-0.019,1.035,0.492,1.603,1.531,1.638C14.869,23.527,15.306,22.891,15.399,21.904z"/>
	<path fill-rule="evenodd" clip-rule="evenodd" fill="none" d="M51.854,10.043c-0.11,0.984-0.221,1.968-0.357,3.182
		C50.77,11.935,51.102,10.969,51.854,10.043z"/>
	<path fill-rule="evenodd" clip-rule="evenodd" fill="none" d="M44.423,8.878c-0.068,0.928-0.137,1.856-0.205,2.785
		C43.522,10.677,43.569,9.733,44.423,8.878z"/>
	<path fill-rule="evenodd" clip-rule="evenodd" d="M15.399,21.904c-0.093,0.986-0.531,1.623-1.607,1.587
		c-1.039-0.035-1.549-0.603-1.531-1.638c0.018-0.989,0.551-1.485,1.518-1.517C14.845,20.303,15.314,20.904,15.399,21.904z"/>
</g>
</svg>
