<?xml version="1.0" encoding="utf-8"?>
<!-- Generator: Adobe Illustrator 16.0.0, SVG Export Plug-In . SVG Version: 6.00 Build 0)  -->
<!DOCTYPE svg PUBLIC "-//W3C//DTD SVG 1.1//EN" "http://www.w3.org/Graphics/SVG/1.1/DTD/svg11.dtd">
<svg version="1.1" id="Layer_1" xmlns="http://www.w3.org/2000/svg" xmlns:xlink="http://www.w3.org/1999/xlink" x="0px" y="0px"
	 width="63px" height="34.38px" viewBox="0 0 63 34.38" enable-background="new 0 0 63 34.38" xml:space="preserve">
<g>
	<path fill-rule="evenodd" clip-rule="evenodd" d="M24.956,9.927c-1.643,2.027-4.103,2.9-6.321,3.524
		c-2.848,0.801-5.993,0.67-9.022,0.444c-1.167-0.087-2.108-0.545-2.217-1.909c-0.1-1.24,0.436-1.869,1.969-2.281
		C15.379,8.088,21.479,6.94,27.686,6.36c3.906-0.365,7.748-0.277,11.543,0.898c1.85,0.572,3.761,0.971,5.738,0.918
		c0.654-0.017,1.1-0.149,1.211-0.826c0.127-0.771,0.661-0.77,1.257-0.757c2.942,0.064,5.884,0.148,8.826,0.146
		c0.96,0,1.122,0.39,1.118,1.237c-0.031,5.756-0.038,11.512,0.005,17.268c0.007,0.947-0.319,1.147-1.188,1.128
		c-2.551-0.059-5.111-0.147-7.656-0.006c-1.592,0.089-2.527-0.305-2.827-1.95c-0.081-0.443-0.146-1.198-0.849-1.113
		c-1.299,0.158-1.323-0.699-1.449-1.563c-0.043-0.293,0.043-0.717-0.453-0.779c0.022,2.884-0.02,2.973-2.035,3.901
		c-0.391,0.179-0.794,0.354-1.209,0.45c-2.859,0.663-5.668,0.131-8.472-0.403c-0.24-0.046-0.518-0.134-0.565-0.453
		c-0.126-0.822-0.812-1.267-1.365-1.838c1.854-0.591,2.331-1.268,1.692-2.548c-0.366-0.736-0.259-0.86,0.513-1.047
		c1.758-0.426,2.031-1.59,0.813-2.947c-0.229-0.256-0.703-0.362-0.642-0.839c0.85-0.227,1.511,0.048,2.17,0.568
		c0.708,0.559,1.479,1.063,2.283,1.467c0.846,0.423,1.766,0.68,2.896-0.026c-1.613,0.104-2.84-0.39-3.781-1.305
		c-1.109-1.078-2.307-1.519-3.828-1.33c-0.678,0.084-1.408-0.082-1.995-0.442c-0.613-0.377-0.989-0.178-1.482,0.205
		c-1.238,0.962-2.623,1.667-4.183,1.942c-1.366,0.241-2.59-0.147-3.556-1.129c-0.776-0.789-0.599-1.562,0.375-2.021
		c0.625-0.295,1.262-0.563,1.89-0.852c0.481-0.222,0.942-0.485,1.334,0.165c0.383,0.636,0.642,1.279,0.022,1.88
		c-0.381,0.37-0.867,0.632-1.369,0.987c2.506-0.453,3.003-1.48,1.76-3.479c-0.123-0.198-0.409-0.375-0.029-0.617
		c1.223-0.782,2.142-2.026,3.696-2.306c1.118-0.202,2.218-0.51,3.583-0.831C29.124,7.654,26.111,8.501,24.956,9.927z M54.592,9.735
		c0.02-0.913-0.108-1.4-1.217-1.403c-1.547-0.005-3.097-0.211-4.64-0.38c-0.724-0.08-0.979,0.099-0.973,0.886
		c0.043,5.005,0.157,10.013-0.194,15.012c-0.061,0.86,0.156,1.253,1.119,1.206c1.551-0.075,3.111-0.074,4.662,0
		c0.941,0.045,1.281-0.198,1.25-1.203c-0.075-2.372-0.023-4.748-0.023-7.123C54.576,14.398,54.543,12.066,54.592,9.735z
		 M13.271,13.225c0.727-1.291,0.395-2.256-0.357-3.182C13.024,11.027,13.135,12.011,13.271,13.225z M20.55,11.663
		c0.695-0.986,0.648-1.929-0.205-2.785C20.413,9.806,20.481,10.734,20.55,11.663z"/>
	<path fill-rule="evenodd" clip-rule="evenodd" d="M22.362,18.195c-0.076,1.102,0.364,1.566,0.899,1.964
		c1.644,1.224,3.559,1.72,5.544,1.96c0.676,0.082,1.32-0.208,1.553-0.916c0.239-0.728,0.016-1.411-0.658-1.803
		c-1.911-1.11-4.017-1.777-6.125-2.36C22.498,16.743,22.422,17.771,22.362,18.195z"/>
	<path fill-rule="evenodd" clip-rule="evenodd" d="M28.202,25.814c0.709-0.045,1.625,0.101,1.849-0.898
		c0.232-1.042-0.517-1.587-1.354-1.917c-1.396-0.55-2.811-1.063-4.238-1.527c-1.194-0.388-1.685,0.04-1.662,1.293
		c0.024,1.394,0.918,2.088,2.067,2.489C25.916,25.622,27.024,25.812,28.202,25.814z"/>
	<path fill-rule="evenodd" clip-rule="evenodd" d="M24.603,16.63c2.022,1.085,4.013,1.802,6.194,1.897
		c0.573,0.024,1.173-0.111,1.398-0.723c0.253-0.682-0.043-1.246-0.563-1.726c-1.432-1.322-2.606-1.45-4.392-0.542
		C26.446,15.941,25.591,16.226,24.603,16.63z"/>
	<path fill-rule="evenodd" clip-rule="evenodd" fill="none" d="M54.6,23.853c0.031,1.005-0.309,1.248-1.25,1.203
		c-1.551-0.074-3.111-0.075-4.662,0c-0.963,0.047-1.18-0.346-1.119-1.206c0.352-4.999,0.237-10.007,0.194-15.012
		c-0.007-0.787,0.249-0.965,0.973-0.886c1.543,0.169,3.093,0.375,4.64,0.38c1.108,0.003,1.236,0.49,1.217,1.403
		c-0.049,2.331-0.016,4.663-0.016,6.994C54.576,19.104,54.524,21.48,54.6,23.853z M50.976,23.491c1.038-0.035,1.55-0.603,1.53-1.638
		c-0.018-0.989-0.551-1.485-1.518-1.517c-1.066-0.034-1.535,0.567-1.62,1.567C49.461,22.891,49.898,23.527,50.976,23.491z"/>
	<path fill-rule="evenodd" clip-rule="evenodd" fill="none" d="M12.914,10.043c0.11,0.984,0.221,1.968,0.357,3.182
		C13.998,11.935,13.666,10.969,12.914,10.043z"/>
	<path fill-rule="evenodd" clip-rule="evenodd" fill="none" d="M20.345,8.878c0.068,0.928,0.137,1.856,0.205,2.785
		C21.245,10.677,21.198,9.733,20.345,8.878z"/>
	<path fill-rule="evenodd" clip-rule="evenodd" d="M49.368,21.904c0.093,0.986,0.53,1.623,1.607,1.587
		c1.038-0.035,1.55-0.603,1.53-1.638c-0.018-0.989-0.551-1.485-1.518-1.517C49.922,20.303,49.453,20.904,49.368,21.904z"/>
</g>
</svg>
